<?xml version="1.0" standalone="no"?>
<!DOCTYPE svg PUBLIC "-//W3C//DTD SVG 20010904//EN"
 "http://www.w3.org/TR/2001/REC-SVG-20010904/DTD/svg10.dtd">
<svg version="1.0" xmlns="http://www.w3.org/2000/svg"
 width="1071.000000pt" height="1048.000000pt" viewBox="0 0 1071.000000 1048.000000"
 preserveAspectRatio="xMidYMid meet">
<metadata>
Created by potrace 1.16, written by Peter Selinger 2001-2019
</metadata>
<g transform="translate(0.000000,1048.000000) scale(0.100000,-0.100000)"
fill="#ffffff" stroke="none">
<path d="M8660 9855 l0 -625 -625 0 -625 0 0 -400 0 -400 625 0 625 0 0 -625
0 -625 400 0 400 0 0 625 0 625 625 0 625 0 0 400 0 400 -625 0 -625 0 0 625
0 625 -400 0 -400 0 0 -625z"/>
<path d="M4472 9631 c-44 -8 -62 -23 -62 -53 0 -11 -12 -18 -39 -23 -36 -6
-40 -10 -43 -38 -3 -27 -8 -33 -40 -40 -35 -8 -38 -12 -38 -43 l0 -34 -419 0
c-231 0 -426 -3 -435 -6 -8 -3 -18 -21 -22 -40 l-6 -34 -218 0 c-120 0 -225
-3 -234 -6 -10 -4 -16 -18 -16 -40 l0 -33 -157 -3 -158 -3 -3 -37 -3 -37 -117
-3 -117 -3 -3 -37 -3 -38 -99 0 c-111 0 -130 -4 -130 -30 0 -43 -10 -50 -70
-50 -79 0 -90 -5 -90 -46 l0 -34 -60 0 c-65 0 -100 -21 -100 -60 0 -17 -7 -20
-40 -20 l-40 0 0 -40 0 -40 -56 0 c-67 0 -90 -11 -99 -48 -4 -21 -14 -31 -38
-38 -24 -7 -34 -17 -41 -41 -5 -20 -15 -33 -26 -33 -35 0 -51 -24 -57 -88 -5
-56 -8 -62 -29 -62 -41 0 -54 -11 -54 -46 0 -30 -3 -34 -34 -39 -40 -8 -46
-22 -46 -107 0 -54 -2 -58 -24 -58 -51 0 -51 -3 -51 -437 0 -435 -2 -422 51
-423 20 0 22 -6 26 -99 4 -104 13 -127 51 -133 17 -2 23 -11 27 -43 5 -38 7
-40 43 -43 l37 -3 0 -47 c0 -62 18 -96 52 -100 23 -3 27 -9 30 -40 3 -34 7
-38 41 -46 35 -9 37 -12 37 -48 0 -35 -2 -38 -28 -38 -36 0 -52 -16 -52 -52 0
-25 -3 -28 -34 -28 -36 0 -46 -12 -46 -56 0 -21 -5 -24 -34 -24 -36 0 -46 -12
-46 -56 0 -21 -5 -24 -34 -24 -36 0 -46 -12 -46 -56 0 -21 -5 -24 -34 -24 -36
0 -46 -12 -46 -56 0 -21 -5 -24 -35 -24 -30 0 -35 -4 -41 -27 -10 -50 -13 -53
-43 -53 -25 0 -30 -5 -35 -34 -7 -34 -21 -46 -57 -46 -12 0 -19 -7 -19 -19 0
-36 -12 -50 -45 -57 -29 -5 -34 -11 -37 -37 -3 -27 -8 -33 -41 -40 -34 -8 -37
-12 -37 -43 0 -30 -3 -34 -27 -34 -40 0 -51 -11 -55 -50 -2 -29 -8 -36 -28
-38 -37 -5 -50 -29 -50 -93 l0 -58 -37 -3 -38 -3 -3 -77 -3 -77 -37 -3 -37 -3
-3 -77 c-3 -78 -3 -78 -30 -78 -16 0 -33 -5 -40 -12 -9 -9 -12 -139 -12 -522
0 -552 1 -558 52 -564 27 -3 27 -5 30 -80 l3 -77 37 -3 37 -3 3 -77 3 -77 38
-3 c36 -3 37 -4 37 -43 0 -38 1 -39 34 -39 34 0 35 -1 41 -47 10 -80 17 -96
50 -105 23 -5 33 -16 40 -40 8 -24 18 -34 40 -40 23 -6 33 -16 40 -40 8 -26
17 -34 40 -38 23 -4 31 -11 33 -30 5 -34 19 -48 50 -52 20 -2 28 -9 30 -28 5
-34 19 -48 50 -52 20 -2 28 -9 30 -28 5 -34 19 -48 50 -52 20 -2 28 -9 30 -28
5 -34 19 -48 50 -52 21 -2 28 -10 32 -33 4 -23 12 -32 38 -40 24 -7 34 -17 40
-40 6 -22 16 -32 40 -40 24 -7 35 -17 40 -40 6 -22 16 -32 39 -39 23 -7 34
-18 40 -40 6 -23 17 -34 40 -40 23 -7 33 -18 40 -40 6 -23 17 -34 40 -40 23
-7 33 -18 40 -40 6 -22 17 -34 39 -40 22 -7 33 -18 40 -40 6 -22 18 -33 40
-39 22 -7 33 -17 40 -40 6 -23 17 -34 40 -40 22 -6 33 -17 40 -40 7 -23 17
-33 42 -39 25 -7 32 -14 32 -32 0 -28 16 -43 50 -48 19 -2 26 -10 28 -30 4
-31 18 -45 52 -50 19 -2 26 -10 28 -30 4 -31 18 -45 52 -50 19 -2 26 -10 28
-30 4 -31 18 -45 52 -50 19 -2 26 -10 28 -30 4 -31 18 -45 52 -50 19 -2 26
-10 28 -30 4 -31 18 -45 52 -50 19 -2 26 -10 30 -33 4 -23 12 -32 38 -40 24
-7 34 -17 40 -40 6 -22 16 -32 40 -40 24 -7 35 -17 40 -40 6 -22 16 -32 39
-39 23 -7 34 -18 40 -40 6 -23 17 -34 40 -40 23 -7 33 -18 40 -40 6 -22 17
-34 39 -40 22 -7 33 -18 40 -40 6 -22 18 -34 40 -40 22 -7 33 -18 40 -40 6
-22 18 -33 40 -39 22 -6 33 -17 40 -40 7 -23 17 -33 39 -39 23 -5 33 -16 40
-40 8 -24 18 -34 43 -40 25 -7 32 -14 32 -32 0 -34 19 -45 89 -52 51 -6 61
-10 61 -26 0 -38 19 -58 55 -58 30 0 35 -3 35 -24 0 -39 24 -49 130 -54 l100
-5 0 -28 c0 -18 7 -32 19 -39 11 -5 83 -10 160 -10 l141 0 0 -30 c0 -48 25
-52 293 -48 255 3 256 4 257 56 0 22 2 22 128 23 157 1 174 5 186 47 9 32 9
32 77 32 73 0 89 11 89 59 0 19 6 21 59 21 80 0 91 5 91 46 0 33 1 34 40 34
l40 0 0 40 0 40 40 0 40 0 0 40 0 40 48 1 c74 2 95 11 105 46 7 22 18 33 40
40 23 6 34 17 40 40 7 22 18 33 40 40 23 6 34 17 40 39 6 22 18 33 40 40 23 7
33 17 39 39 5 23 16 33 40 40 24 8 34 18 40 40 6 23 16 33 40 40 25 8 34 17
38 39 4 22 13 31 40 40 27 8 36 18 40 40 4 22 13 31 40 40 34 11 35 13 44 78
l9 67 36 3 c34 3 36 5 39 41 3 35 5 37 37 37 35 0 45 13 45 56 0 21 5 24 34
24 36 0 46 12 46 56 0 21 5 24 35 24 33 0 35 2 41 40 6 37 9 40 40 40 29 0 34
3 34 24 0 44 10 56 46 56 33 0 34 1 34 40 l0 40 40 0 40 0 0 40 0 40 40 0 40
0 0 40 0 40 40 0 40 0 0 40 0 40 40 0 40 0 0 40 0 40 40 0 c39 0 40 1 40 34 0
36 12 46 56 46 21 0 24 5 24 34 0 31 3 34 40 40 38 6 40 8 40 41 0 30 3 35 24
35 44 0 56 10 56 46 0 29 3 34 24 34 43 0 56 10 56 45 0 32 2 34 38 37 35 3
37 5 40 41 3 35 5 37 37 37 35 0 45 13 45 56 0 21 5 24 34 24 36 0 46 12 46
56 0 21 5 24 35 24 33 0 35 2 41 40 6 37 9 40 40 40 29 0 34 3 34 24 0 44 10
56 46 56 33 0 34 1 34 40 l0 40 40 0 40 0 0 40 0 40 40 0 40 0 0 40 0 40 40 0
40 0 0 40 0 40 40 0 40 0 0 40 0 40 40 0 c39 0 40 1 40 34 0 36 12 46 56 46
21 0 24 5 24 34 0 31 3 34 40 40 38 6 40 8 40 41 0 30 3 35 24 35 44 0 56 10
56 46 0 30 3 34 28 34 15 0 33 4 40 9 8 5 31 4 53 -2 36 -9 39 -12 39 -43 0
-32 3 -34 40 -40 l39 -6 3 -72 3 -71 38 -3 37 -3 0 -108 c0 -116 6 -131 52
-131 l28 0 0 -150 c0 -137 2 -150 19 -160 11 -5 29 -10 40 -10 21 0 21 -3 23
-513 l3 -512 33 -3 32 -3 0 -162 c0 -89 3 -212 7 -274 l6 -111 32 -6 32 -6 6
-106 c4 -58 9 -110 13 -115 3 -5 18 -9 33 -9 28 0 29 -2 36 -65 7 -68 26 -95
67 -95 12 0 18 -8 18 -24 0 -36 35 -56 97 -56 49 0 53 -2 53 -24 0 -57 -5 -56
214 -56 221 0 249 6 254 53 3 24 7 27 43 27 35 0 39 3 39 24 0 44 10 56 46 56
33 0 34 1 34 40 0 37 2 40 28 40 43 0 52 17 52 92 l0 68 34 0 c43 0 46 8 46
129 l0 97 38 10 37 9 3 153 c3 152 3 153 27 162 l25 10 0 1050 0 1050 -25 10
c-25 9 -25 11 -25 124 0 122 -2 126 -56 126 -24 0 -24 0 -24 114 l0 113 -40 7
-40 6 0 75 0 75 -34 0 c-32 0 -34 2 -40 46 -3 26 -6 62 -6 80 0 32 -2 34 -33
34 l-34 0 -9 78 c-9 77 -9 77 -40 80 -31 3 -32 4 -39 67 -7 65 -15 80 -50 86
-12 3 -21 15 -26 35 -9 45 -17 54 -49 54 -26 0 -29 4 -32 38 -3 35 -5 37 -39
40 l-36 3 -7 61 c-7 70 -17 86 -54 90 -20 2 -28 9 -30 28 -5 34 -19 48 -50 52
-20 2 -28 9 -30 28 -5 34 -20 50 -48 50 -18 0 -25 7 -30 28 -9 38 -23 52 -50
52 -19 0 -26 7 -31 30 -7 38 -22 46 -95 55 -58 7 -58 7 -58 41 0 29 -3 34 -24
34 -44 0 -56 10 -56 46 0 33 -1 34 -40 34 -37 0 -40 2 -40 28 0 43 -17 52 -92
52 l-68 0 0 40 0 40 -40 0 c-39 0 -40 1 -40 34 0 41 -11 46 -91 46 -53 0 -59
2 -59 21 0 48 -16 59 -90 59 l-69 0 -3 38 -3 37 -77 3 -77 3 -3 37 -3 37 -77
3 -78 3 0 29 c0 38 -23 50 -99 50 -58 0 -60 1 -66 29 -8 38 -21 42 -137 48
l-97 6 -3 30 c-4 41 -20 45 -180 46 l-127 1 -6 34 c-8 37 -28 46 -111 46 -39
0 -44 3 -44 23 0 32 -11 44 -47 52 -23 4 -33 12 -33 25 0 37 -12 50 -46 50
-29 0 -34 3 -34 24 0 44 -10 56 -46 56 -29 0 -34 3 -34 24 0 44 -10 56 -46 56
-29 0 -34 3 -34 24 0 43 -10 56 -45 56 -32 0 -34 2 -37 38 -3 35 -5 37 -40 40
-35 3 -37 5 -40 40 -3 35 -5 37 -40 40 -35 3 -37 5 -40 40 -3 35 -5 37 -40 40
-35 3 -37 5 -40 40 -3 35 -5 37 -40 40 -36 3 -38 5 -38 37 0 35 -13 45 -56 45
-21 0 -24 5 -24 35 0 30 -4 35 -27 41 -50 10 -53 13 -53 43 0 29 -14 41 -50
41 -19 0 -30 19 -30 50 0 19 -19 30 -50 30 -12 0 -20 10 -24 35 -6 29 -12 35
-40 41 -29 5 -35 11 -41 40 -4 24 -11 34 -25 34 -31 0 -50 11 -50 30 0 36 -12
50 -41 50 -30 0 -33 3 -43 53 -6 23 -11 27 -41 27 -30 0 -35 3 -35 24 0 43
-10 56 -45 56 -32 0 -34 2 -37 38 -3 35 -5 37 -40 40 -35 3 -37 5 -40 40 -3
35 -5 37 -40 40 -35 3 -37 5 -40 40 -3 35 -5 37 -40 40 -35 3 -37 5 -40 40 -3
35 -5 37 -40 40 -35 3 -37 5 -40 40 -3 35 -5 37 -40 40 -35 3 -37 5 -40 40 -3
35 -5 37 -40 40 -36 3 -38 5 -38 37 0 35 -13 45 -56 45 -21 0 -24 5 -24 35 0
30 -4 35 -27 41 -50 10 -53 13 -53 43 0 29 -14 41 -50 41 -19 0 -30 19 -30 50
0 14 -10 21 -34 25 -29 6 -35 12 -41 41 -5 30 -10 35 -45 40 -33 5 -40 11 -40
29 0 12 -6 28 -14 34 -17 15 -242 23 -304 12z m193 -781 c43 0 55 -10 55 -46
0 -33 1 -34 40 -34 l40 0 0 -40 0 -40 40 0 40 0 0 -40 0 -40 40 0 40 0 0 -40
0 -40 40 0 40 0 0 -40 0 -40 40 0 40 0 0 -40 0 -40 40 0 40 0 0 -40 0 -40 40
0 40 0 0 -40 c0 -39 1 -40 34 -40 36 0 46 -12 46 -56 0 -21 5 -24 34 -24 31 0
34 -3 40 -40 6 -38 8 -40 41 -40 32 0 35 -3 35 -28 0 -15 5 -33 12 -40 7 -7
25 -12 40 -12 24 0 28 -4 28 -28 0 -15 5 -33 12 -40 7 -7 25 -12 40 -12 24 0
28 -4 28 -28 0 -15 5 -33 12 -40 7 -7 25 -12 40 -12 25 0 28 -3 28 -35 0 -33
2 -35 40 -41 37 -6 40 -9 40 -40 0 -29 3 -34 24 -34 44 0 56 -10 56 -46 0 -33
1 -34 40 -34 l40 0 0 -40 0 -40 40 0 40 0 0 -40 0 -40 40 0 40 0 0 -40 0 -40
40 0 40 0 0 -40 0 -40 40 0 40 0 0 -40 0 -40 40 0 40 0 0 -40 0 -40 40 0 40 0
0 -40 c0 -39 1 -40 34 -40 36 0 46 -12 46 -56 0 -21 5 -24 34 -24 31 0 34 -3
40 -40 6 -38 8 -40 41 -40 32 0 35 -3 35 -28 0 -15 5 -33 12 -40 7 -7 25 -12
40 -12 24 0 28 -4 28 -28 0 -15 5 -33 12 -40 7 -7 25 -12 40 -12 25 0 28 -3
28 -34 0 -36 12 -46 56 -46 21 0 24 -5 24 -35 0 -33 2 -35 40 -41 37 -6 40 -9
40 -40 0 -29 3 -34 24 -34 44 0 56 -10 56 -46 0 -33 1 -34 40 -34 l40 0 0 -40
0 -40 40 0 40 0 0 -40 0 -40 40 0 40 0 0 -40 0 -40 40 0 40 0 0 -40 0 -40 40
0 40 0 0 -40 0 -40 40 0 40 0 0 -40 c0 -39 1 -40 34 -40 36 0 46 -12 46 -56 0
-21 5 -24 34 -24 31 0 34 -3 40 -40 6 -38 8 -40 41 -40 30 0 35 -3 35 -24 0
-44 10 -56 46 -56 31 0 34 -3 34 -28 0 -15 5 -33 12 -40 7 -7 25 -12 40 -12
24 0 28 -4 28 -28 0 -15 5 -33 12 -40 7 -7 25 -12 40 -12 25 0 28 -3 28 -34 0
-36 12 -46 56 -46 21 0 24 -5 24 -35 0 -30 3 -35 24 -35 44 0 56 -10 56 -46 0
-33 1 -34 40 -34 l40 0 0 -43 c0 -40 -2 -44 -32 -52 -25 -8 -34 -17 -38 -39
-4 -22 -13 -31 -40 -40 -27 -8 -36 -18 -40 -40 -4 -22 -13 -31 -40 -40 -27 -8
-36 -18 -40 -40 -4 -23 -12 -32 -37 -38 -25 -7 -34 -16 -41 -40 -6 -25 -15
-34 -40 -40 -24 -7 -33 -16 -40 -41 -6 -25 -15 -33 -38 -37 -22 -4 -32 -13
-40 -40 -9 -27 -18 -36 -40 -40 -22 -4 -32 -13 -40 -40 -9 -27 -18 -36 -40
-40 -22 -4 -32 -13 -40 -40 -9 -27 -18 -36 -40 -40 -22 -4 -31 -13 -39 -38 -7
-24 -17 -35 -39 -40 -22 -6 -33 -16 -39 -39 -7 -22 -18 -33 -40 -40 -23 -6
-34 -17 -40 -40 -7 -22 -18 -33 -40 -40 -23 -6 -34 -17 -40 -40 -7 -22 -18
-33 -40 -40 -23 -6 -33 -17 -39 -39 -5 -22 -16 -32 -40 -39 -24 -8 -34 -18
-40 -40 -6 -23 -16 -33 -40 -40 -25 -8 -34 -17 -38 -39 -4 -22 -13 -31 -40
-40 -27 -8 -36 -18 -40 -40 -4 -22 -13 -31 -40 -40 -27 -8 -36 -18 -40 -40 -4
-22 -13 -31 -40 -40 -27 -8 -36 -18 -40 -40 -4 -22 -13 -31 -40 -40 -27 -8
-36 -18 -40 -40 -4 -23 -12 -32 -37 -38 -25 -7 -34 -16 -41 -41 -6 -25 -15
-33 -38 -37 -22 -4 -32 -13 -40 -40 -9 -27 -18 -36 -40 -40 -22 -4 -32 -13
-40 -40 -9 -27 -18 -36 -40 -40 -22 -4 -31 -13 -39 -38 -7 -24 -17 -34 -40
-40 -22 -6 -32 -16 -40 -40 -7 -24 -17 -35 -39 -40 -22 -6 -33 -16 -39 -39 -7
-22 -18 -33 -40 -40 -23 -6 -34 -17 -40 -40 -7 -22 -18 -33 -40 -40 -23 -6
-34 -17 -40 -40 -7 -22 -18 -33 -40 -40 -23 -6 -33 -17 -39 -39 -5 -22 -16
-32 -40 -39 -24 -8 -34 -18 -40 -40 -6 -23 -16 -33 -40 -40 -25 -8 -34 -17
-38 -39 -4 -22 -13 -31 -40 -40 -27 -8 -36 -18 -40 -40 -4 -22 -13 -31 -40
-40 -27 -8 -36 -18 -40 -40 -4 -22 -13 -31 -40 -40 -27 -9 -36 -17 -40 -41 -4
-23 -11 -31 -32 -33 -31 -4 -45 -18 -50 -52 -2 -19 -10 -26 -33 -30 -24 -4
-32 -13 -41 -40 -9 -27 -18 -36 -40 -40 -22 -4 -32 -13 -40 -40 -9 -27 -18
-36 -40 -40 -22 -4 -32 -13 -40 -40 -9 -27 -18 -36 -40 -40 -22 -4 -31 -13
-39 -38 -7 -24 -17 -34 -40 -40 -22 -6 -32 -16 -40 -40 -7 -24 -17 -35 -39
-40 -22 -6 -33 -16 -39 -39 -7 -22 -18 -33 -40 -40 -23 -6 -34 -17 -40 -40 -7
-22 -18 -33 -40 -40 -23 -6 -34 -17 -40 -40 -7 -22 -18 -33 -40 -40 -23 -6
-33 -16 -39 -41 -8 -28 -13 -32 -42 -32 -36 0 -46 -13 -46 -55 0 -20 -6 -24
-37 -27 -34 -3 -38 -6 -41 -34 -3 -35 -25 -44 -107 -44 -44 0 -55 -10 -55 -51
0 -18 -8 -19 -112 -20 -62 0 -131 -3 -153 -7 -36 -7 -40 -10 -43 -40 -3 -31
-5 -32 -48 -32 -39 0 -44 3 -44 23 0 45 -9 48 -168 54 l-151 6 -3 31 c-3 30
-5 31 -53 34 -76 4 -95 10 -95 31 0 40 -11 51 -51 51 -37 0 -39 2 -39 30 0 37
-27 50 -101 50 l-49 0 0 40 0 40 -40 0 -40 0 0 40 0 40 -40 0 -40 0 0 40 0 40
-40 0 -40 0 0 40 0 40 -40 0 -40 0 0 40 0 40 -40 0 -40 0 0 40 0 40 -40 0
c-40 0 -40 0 -40 39 0 39 -1 40 -37 43 -36 3 -38 5 -41 41 -3 35 -5 37 -36 37
-31 0 -34 3 -40 40 -6 38 -8 40 -41 40 -32 0 -35 3 -35 28 0 36 -16 52 -52 52
-24 0 -28 4 -28 28 0 36 -16 52 -52 52 -24 0 -28 4 -28 30 0 31 -22 50 -59 50
-15 0 -20 8 -23 33 -3 28 -7 33 -38 37 -32 5 -35 8 -38 43 -3 36 -4 37 -43 37
-39 0 -39 0 -39 40 l0 40 -40 0 -40 0 0 40 0 40 -40 0 -40 0 0 40 0 40 -40 0
-40 0 0 40 0 40 -40 0 -40 0 0 40 0 40 -40 0 -40 0 0 40 0 40 -40 0 -40 0 0
40 0 40 -40 0 c-40 0 -40 0 -40 39 0 39 -1 40 -38 43 -34 3 -37 6 -42 38 -4
31 -9 35 -37 38 -25 3 -33 8 -33 23 0 37 -19 59 -50 59 -26 0 -30 4 -30 28 0
36 -16 52 -52 52 -24 0 -28 4 -28 28 0 36 -16 52 -52 52 -24 0 -28 4 -28 30 0
31 -22 50 -59 50 -15 0 -20 8 -23 33 -3 28 -7 33 -38 37 -32 5 -35 8 -38 43
-3 36 -5 37 -41 37 l-38 0 -9 72 c-9 70 -10 73 -41 82 -27 7 -32 14 -35 45 -3
34 -5 36 -40 39 l-38 3 -1 87 c-1 116 -8 136 -44 142 l-30 5 -3 282 -2 282 37
3 38 3 3 77 3 77 37 3 c35 3 37 5 40 41 2 27 8 37 21 37 35 0 51 23 57 88 6
56 9 62 30 62 41 0 54 11 54 45 0 32 2 34 38 37 35 3 37 5 40 40 3 35 5 37 40
40 35 3 37 5 40 41 3 35 5 37 37 37 35 0 45 13 45 56 0 21 5 24 34 24 36 0 46
12 46 56 0 21 5 24 35 24 33 0 35 2 41 40 6 37 9 40 40 40 29 0 34 3 34 24 0
44 10 56 46 56 33 0 34 1 34 40 l0 40 40 0 40 0 0 40 0 40 40 0 40 0 0 40 0
40 40 0 40 0 0 40 0 40 79 0 80 0 3 -37 3 -38 78 -3 c76 -3 77 -3 77 -30 0
-45 11 -51 90 -54 74 -3 75 -3 80 -33 7 -38 25 -43 182 -44 l127 -1 3 -37 3
-38 116 -3 115 -3 10 -31 c6 -22 17 -35 34 -39 14 -4 100 -7 193 -8 l167 -1 0
-24 c0 -48 15 -51 290 -54 l256 -3 10 -32 c8 -27 15 -33 49 -39 22 -4 214 -7
427 -7 l387 -1 3 -37 c3 -36 5 -38 40 -41 35 -3 37 -5 40 -40 3 -34 6 -37 38
-40 28 -3 38 -9 50 -35 19 -40 47 -46 225 -46 178 0 206 6 225 46 12 26 22 32
50 35 32 3 35 6 38 40 3 35 5 37 40 40 35 3 37 5 40 41 3 33 6 37 31 37 15 0
32 5 39 12 16 16 17 490 2 519 -7 12 -21 19 -40 19 -28 0 -30 2 -30 40 0 40 0
40 -39 40 -39 0 -40 1 -43 38 l-3 37 -299 3 c-212 2 -303 -1 -312 -9 -8 -6
-14 -24 -14 -40 0 -25 -4 -28 -37 -31 -35 -3 -38 -6 -41 -35 l-3 -33 -279 0
-279 0 -3 33 -3 32 -277 3 -278 2 0 23 c0 50 -6 52 -205 55 l-186 3 -6 30 c-8
42 -33 49 -184 49 l-129 0 0 28 c0 46 -15 52 -132 52 l-108 0 0 28 c0 46 -15
52 -127 52 -97 0 -103 1 -103 21 0 11 -5 29 -10 39 -7 13 -7 21 0 25 5 3 10
22 10 41 0 32 2 34 34 34 36 0 46 12 46 56 0 21 5 24 34 24 36 0 46 12 46 56
0 21 5 24 35 24 33 0 35 2 41 40 6 37 9 40 40 40 29 0 34 3 34 24 0 44 10 56
46 56 33 0 34 1 34 40 l0 40 40 0 40 0 0 40 0 40 40 0 40 0 0 40 0 40 40 0 40
0 0 40 0 40 40 0 c39 0 40 1 40 34 0 36 12 46 56 46 21 0 24 5 24 34 0 31 3
34 40 40 38 6 40 8 40 41 0 30 3 35 24 35 44 0 56 10 56 46 0 29 3 34 24 34
43 0 56 10 56 45 0 32 2 34 38 37 35 3 37 5 40 40 3 35 5 37 40 40 35 3 37 5
40 41 3 35 5 37 37 37 35 0 45 13 45 56 0 21 5 24 35 24 33 0 35 2 41 40 6 37
9 40 40 40 29 0 34 3 34 24 0 44 10 56 46 56 33 0 34 1 34 40 l0 40 40 0 40 0
0 40 0 40 40 0 40 0 0 40 0 40 40 0 40 0 0 40 0 40 40 0 40 0 0 40 0 40 40 0
c39 0 40 1 40 34 0 39 14 46 98 46 34 0 52 4 53 13 0 10 2 10 6 0 2 -7 15 -13
28 -13z m-1055 -75 c0 -10 -10 -15 -34 -15 -36 0 -46 -12 -46 -56 0 -21 -5
-24 -34 -24 -36 0 -46 -12 -46 -56 0 -21 -5 -24 -34 -24 -31 0 -35 -3 -43 -37
-7 -33 -13 -38 -40 -41 -26 -3 -32 -8 -37 -37 -7 -33 -21 -45 -57 -45 -13 0
-19 -7 -19 -22 0 -33 -11 -45 -47 -53 -28 -6 -33 -11 -33 -36 0 -30 -3 -33
-52 -43 -24 -6 -28 -11 -28 -41 0 -30 -3 -35 -24 -35 -44 0 -56 -10 -56 -46 0
-29 -3 -34 -24 -34 -44 0 -56 -10 -56 -46 0 -29 -3 -34 -24 -34 -44 0 -56 -10
-56 -46 0 -29 -3 -34 -24 -34 -44 0 -56 -10 -56 -46 0 -31 -3 -34 -28 -34 -36
0 -52 -16 -52 -52 0 -25 -3 -28 -34 -28 -36 0 -46 -12 -46 -56 0 -21 -5 -24
-34 -24 -36 0 -46 -12 -46 -56 0 -21 -5 -24 -34 -24 -36 0 -46 -12 -46 -56 0
-21 -5 -24 -34 -24 -36 0 -46 -12 -46 -56 0 -21 -5 -24 -34 -24 -36 0 -46 -12
-46 -56 0 -21 -5 -24 -34 -24 -31 0 -35 -4 -41 -32 -8 -37 -20 -48 -51 -48
-17 0 -23 -8 -28 -35 -6 -29 -12 -35 -41 -41 -25 -4 -35 -12 -35 -24 0 -39
-11 -50 -51 -50 l-39 0 0 53 c0 62 -20 97 -56 97 -21 0 -24 4 -24 40 l0 40
-40 0 -40 0 0 80 0 80 -35 0 -35 0 0 165 c0 156 1 165 19 165 36 0 51 27 51
91 0 53 2 59 21 59 39 0 59 19 59 55 0 28 4 35 19 35 36 0 50 12 57 45 5 29
11 34 37 37 26 2 33 9 41 36 7 26 14 32 35 32 35 0 51 17 51 52 0 26 3 28 39
28 76 0 100 10 109 44 8 30 11 31 70 37 69 7 92 20 92 55 0 23 3 24 64 24 77
0 96 6 96 30 0 47 7 50 110 50 122 0 130 3 130 46 l0 33 158 3 157 3 3 38 3
37 235 0 c149 0 234 4 234 10 0 6 2 10 5 10 3 0 5 -7 5 -15z m4842 -2742 c3
-36 5 -38 41 -41 33 -3 37 -6 37 -31 0 -34 17 -51 51 -51 21 0 28 -6 35 -32 8
-27 15 -34 41 -36 27 -3 32 -8 37 -37 7 -38 13 -41 101 -53 48 -7 50 -9 55
-42 4 -31 9 -35 37 -38 31 -3 32 -5 39 -63 7 -66 23 -89 60 -89 19 0 24 -5 24
-24 0 -29 24 -56 49 -56 14 0 20 -11 25 -40 6 -38 8 -40 41 -40 32 0 34 -2 37
-37 3 -36 5 -38 41 -41 l37 -3 0 -64 c0 -84 5 -95 45 -95 l33 0 4 -71 c4 -74
13 -89 56 -89 20 0 22 -4 22 -61 0 -76 12 -99 50 -99 l30 0 0 -102 c0 -57 4
-108 8 -114 4 -6 21 -15 39 -18 l32 -7 3 -112 3 -111 38 -9 37 -9 0 -792 0
-792 -32 -9 c-43 -13 -46 -27 -47 -222 -1 -158 -2 -163 -22 -163 -48 0 -59
-16 -60 -93 -1 -40 -4 -61 -6 -47 -7 35 -21 50 -49 50 l-24 0 0 344 c0 189 -3
351 -6 360 -4 10 -18 16 -40 16 l-34 0 0 423 c0 232 -4 427 -8 434 -4 6 -21
13 -37 15 l-30 3 -5 155 -5 155 -37 3 -37 3 -3 117 -3 117 -37 3 -37 3 -3 77
-3 77 -37 3 -38 3 0 69 c0 74 -11 90 -59 90 -16 0 -20 8 -23 38 -3 35 -5 37
-40 40 -35 3 -37 5 -40 40 -2 20 -1 56 1 80 3 42 3 42 42 42 39 0 39 0 39 40
l0 40 40 0 40 0 0 183 c0 197 -3 207 -51 207 -25 0 -28 4 -31 38 -3 35 -5 37
-40 40 -36 3 -38 5 -38 37 0 35 -13 45 -56 45 -21 0 -24 5 -24 34 0 36 -12 46
-56 46 -21 0 -24 5 -24 34 0 36 -12 46 -56 46 -21 0 -24 5 -24 34 0 34 -13 46
-50 46 -13 0 -21 10 -25 33 -8 36 -20 47 -51 47 -17 0 -23 8 -28 35 -6 29 -12
35 -40 41 -29 5 -35 11 -40 39 -4 20 -14 36 -24 38 -9 3 11 5 45 6 l62 1 3
-37z"/>
</g>
</svg>
