<?xml version="1.0" standalone="no"?>
<!DOCTYPE svg PUBLIC "-//W3C//DTD SVG 20010904//EN"
 "http://www.w3.org/TR/2001/REC-SVG-20010904/DTD/svg10.dtd">
<svg version="1.0" xmlns="http://www.w3.org/2000/svg"
 width="1071.000000pt" height="1016.000000pt" viewBox="0 0 1071.000000 1016.000000"
 preserveAspectRatio="xMidYMid meet">
<metadata>
Created by potrace 1.16, written by Peter Selinger 2001-2019
</metadata>
<g transform="translate(0.000000,1016.000000) scale(0.100000,-0.100000)"
fill="#ffffff" stroke="none">
<path d="M4433 9625 c-13 -9 -23 -27 -23 -40 0 -20 -6 -24 -37 -27 -35 -3 -38
-6 -43 -38 -4 -31 -9 -36 -40 -40 -31 -4 -35 -9 -38 -37 l-3 -33 -142 0 c-78
0 -274 -3 -434 -7 l-293 -6 -6 -34 -6 -33 -177 -1 c-97 -1 -201 -4 -231 -7
-53 -7 -55 -8 -58 -39 l-3 -33 -132 -1 c-166 -1 -181 -5 -185 -47 l-3 -32
-100 0 c-116 0 -139 -8 -139 -50 l0 -30 -82 -1 c-121 -2 -142 -8 -148 -44 -5
-29 -7 -30 -72 -37 -81 -8 -88 -11 -88 -47 0 -27 -2 -28 -72 -37 -71 -9 -73
-10 -82 -41 -8 -27 -15 -32 -45 -35 -34 -3 -36 -5 -39 -40 -3 -37 -4 -38 -45
-39 -79 -2 -99 -11 -112 -49 -9 -27 -19 -36 -40 -40 -22 -4 -31 -12 -37 -37
-7 -25 -16 -34 -40 -41 -36 -9 -45 -29 -47 -104 l-1 -48 -40 0 -40 0 0 -40 c0
-38 -2 -40 -30 -40 -38 0 -50 -23 -50 -97 0 -58 -1 -59 -32 -68 -28 -9 -34
-16 -40 -50 -4 -22 -7 -205 -7 -406 -1 -391 -1 -394 49 -401 24 -3 25 -6 31
-107 7 -109 17 -131 60 -131 13 0 19 -10 21 -37 3 -36 5 -38 41 -41 37 -3 37
-3 38 -50 2 -75 11 -96 46 -106 27 -8 32 -15 35 -45 3 -34 5 -36 41 -39 l38
-3 -3 -42 c-3 -40 -5 -42 -38 -47 -31 -4 -35 -9 -38 -37 -3 -27 -8 -32 -40
-40 -32 -7 -37 -13 -40 -39 -3 -26 -9 -32 -40 -40 -32 -8 -37 -13 -40 -40 -3
-27 -8 -33 -37 -38 -33 -7 -45 -21 -45 -57 0 -13 -7 -19 -24 -19 -31 0 -56
-25 -56 -56 0 -19 -5 -24 -24 -24 -31 0 -56 -25 -56 -56 0 -17 -6 -24 -19 -24
-36 0 -50 -12 -57 -45 -5 -29 -11 -34 -37 -37 -27 -3 -33 -8 -40 -40 -8 -32
-13 -37 -40 -40 -28 -3 -33 -7 -37 -38 -4 -31 -9 -36 -40 -40 -32 -5 -35 -8
-38 -42 -3 -35 -5 -37 -40 -40 -35 -3 -37 -5 -40 -40 -3 -30 -7 -38 -23 -38
-38 0 -59 -35 -59 -99 l0 -60 -37 -3 -38 -3 -3 -70 c-3 -74 -10 -85 -54 -85
l-28 0 0 -80 0 -80 -34 0 c-22 0 -36 -6 -40 -16 -10 -26 -7 -1020 3 -1047 6
-16 21 -28 40 -32 30 -6 30 -7 33 -83 l3 -77 38 -3 37 -3 0 -74 c0 -78 5 -85
56 -85 21 0 24 -4 24 -40 0 -39 1 -40 34 -40 37 0 46 -15 46 -81 0 -42 17 -66
49 -71 17 -2 27 -13 35 -38 9 -27 18 -36 40 -40 23 -4 32 -12 38 -37 7 -25 16
-34 40 -41 25 -6 34 -15 40 -40 7 -24 16 -33 41 -40 25 -6 33 -15 37 -38 4
-22 13 -32 40 -40 27 -9 36 -18 40 -40 4 -22 13 -32 40 -40 27 -9 36 -18 40
-40 4 -22 13 -32 40 -40 27 -9 36 -18 40 -40 4 -22 13 -31 38 -39 24 -7 34
-17 40 -40 6 -22 16 -32 40 -40 24 -7 35 -17 40 -39 6 -22 16 -33 39 -39 22
-7 33 -18 40 -40 6 -23 17 -34 40 -40 22 -7 33 -18 40 -40 6 -23 17 -34 40
-40 22 -7 33 -18 40 -40 6 -23 17 -33 39 -39 22 -5 32 -16 39 -40 8 -24 18
-34 40 -40 23 -6 33 -16 40 -40 8 -25 17 -34 39 -38 22 -4 31 -13 40 -40 8
-27 18 -36 40 -40 22 -4 31 -13 40 -40 8 -27 18 -36 40 -40 22 -4 31 -13 40
-40 9 -27 17 -36 41 -40 23 -4 31 -11 33 -32 4 -31 18 -45 52 -50 19 -2 26
-10 30 -33 4 -24 13 -32 40 -41 27 -9 36 -18 40 -40 4 -22 13 -32 40 -40 27
-9 36 -18 40 -40 4 -22 13 -32 40 -40 27 -9 36 -18 40 -40 4 -22 13 -31 38
-39 24 -7 34 -17 40 -40 6 -22 16 -32 40 -40 24 -7 35 -17 40 -40 6 -22 16
-32 39 -39 22 -7 34 -18 40 -40 6 -22 17 -33 40 -39 22 -7 33 -18 40 -40 6
-23 17 -34 39 -40 22 -6 33 -18 40 -40 6 -23 17 -34 40 -40 22 -6 33 -17 40
-40 7 -23 17 -33 39 -39 23 -5 33 -16 40 -40 8 -24 18 -34 40 -40 23 -6 33
-16 40 -40 8 -25 17 -34 39 -38 22 -4 31 -13 40 -40 12 -37 32 -46 109 -49 30
-1 37 -5 37 -22 0 -39 19 -59 55 -59 30 0 35 -3 35 -24 0 -38 23 -47 130 -53
l100 -6 0 -28 c0 -18 7 -32 19 -39 11 -5 82 -10 160 -10 l140 0 3 -32 c3 -27
8 -33 38 -41 19 -5 138 -7 263 -5 244 3 246 4 247 56 0 22 3 22 123 23 162 2
179 6 191 47 l9 32 68 0 c73 0 89 11 89 59 0 19 6 21 59 21 80 0 91 5 91 45 0
32 2 34 38 37 35 3 37 5 40 41 3 36 4 37 43 37 39 0 39 0 39 40 l0 40 48 1
c74 2 95 11 106 47 7 24 17 34 40 40 23 6 33 16 39 39 7 22 18 33 40 40 23 6
34 17 40 40 7 22 18 33 40 40 23 6 33 16 39 39 6 23 16 33 40 40 24 7 34 17
40 40 5 22 16 32 40 39 27 8 34 16 36 43 3 26 8 32 26 32 30 0 54 20 58 49 2
17 12 27 32 32 38 10 44 22 52 92 6 54 8 57 33 57 35 0 51 17 51 52 0 24 4 28
28 28 36 0 52 16 52 52 0 24 4 28 28 28 36 0 52 16 52 52 0 25 3 28 35 28 33
0 35 2 41 40 6 37 9 40 40 40 29 0 34 3 34 24 0 44 10 56 46 56 33 0 34 1 34
40 l0 40 40 0 40 0 0 40 0 40 40 0 40 0 0 40 0 40 40 0 40 0 0 40 0 40 40 0
40 0 0 40 0 40 40 0 40 0 0 40 0 40 40 0 40 0 0 40 0 40 40 0 40 0 0 40 c0 40
0 40 39 40 39 0 40 1 43 38 3 34 6 37 38 42 31 4 35 9 38 38 3 24 8 32 23 32
37 0 59 19 59 50 0 26 4 30 28 30 36 0 52 16 52 52 0 24 4 28 28 28 36 0 52
16 52 52 0 24 4 28 30 28 31 0 50 22 50 59 0 15 8 20 33 23 28 3 33 7 37 38 5
32 8 35 43 38 36 3 37 4 37 43 0 39 0 39 40 39 l40 0 0 40 0 40 40 0 40 0 0
40 0 40 40 0 40 0 0 40 0 40 40 0 40 0 0 40 0 40 40 0 40 0 0 40 0 40 40 0 40
0 0 40 0 40 40 0 40 0 0 40 0 40 40 0 40 0 0 40 c0 39 1 40 33 40 18 0 38 5
45 12 9 9 12 9 12 0 0 -7 14 -12 34 -12 33 0 35 -2 38 -37 3 -36 5 -38 40 -41
l37 -3 3 -77 3 -77 38 -3 37 -3 0 -109 c0 -98 2 -110 19 -120 11 -5 29 -10 40
-10 20 0 21 -7 23 -152 l3 -152 37 -9 38 -9 2 -511 3 -512 33 -3 32 -3 0 -162
c0 -89 3 -213 7 -274 l6 -113 34 0 33 0 1 -67 c0 -38 4 -90 7 -118 7 -47 9
-50 38 -53 31 -3 32 -4 39 -67 7 -68 14 -79 57 -90 19 -5 28 -14 30 -33 4 -34
39 -52 101 -52 43 0 47 -2 47 -24 0 -57 -5 -56 214 -56 221 0 249 6 254 53 3
24 7 27 43 27 35 0 39 3 39 24 0 44 10 56 46 56 33 0 34 1 34 40 0 37 2 40 28
40 43 0 52 17 52 92 l0 68 29 0 c16 0 33 6 39 13 6 7 13 60 14 118 l3 104 35
5 35 5 3 157 c2 153 3 157 25 160 l22 3 0 1055 0 1055 -22 10 c-21 9 -23 17
-25 125 l-3 115 -37 3 -38 3 0 114 c0 121 -2 125 -55 125 -23 0 -24 3 -27 78
l-3 77 -31 3 c-29 3 -32 6 -38 49 -3 25 -6 58 -6 73 0 28 -15 40 -50 40 -15 0
-19 12 -25 75 l-7 75 -33 0 c-32 0 -32 0 -39 61 -9 80 -13 87 -46 94 -23 5
-29 13 -34 46 -6 37 -8 39 -41 39 -32 0 -34 2 -37 38 -3 35 -5 37 -39 40 l-36
3 -7 61 c-7 70 -16 84 -56 93 -22 5 -30 13 -32 33 -2 19 -13 32 -38 43 -20 10
-37 26 -40 39 -5 21 -14 29 -60 50 -8 4 -17 16 -19 26 -5 28 -21 44 -42 44
-12 0 -25 14 -36 37 -19 40 -40 49 -115 52 -35 1 -37 3 -40 39 -3 35 -5 37
-40 40 -35 3 -37 5 -40 40 -3 35 -5 37 -40 40 -34 3 -38 6 -38 32 0 37 -6 40
-89 47 l-70 6 -3 36 c-3 34 -5 36 -40 39 -33 3 -37 6 -40 35 -3 32 -4 32 -75
41 -70 8 -71 9 -77 41 -7 33 -7 33 -81 40 -75 7 -75 8 -75 36 0 34 -3 35 -92
44 -66 6 -67 7 -70 38 l-3 32 -77 3 c-75 3 -78 4 -78 27 0 50 -7 55 -85 55
l-73 0 -7 31 c-9 40 -35 49 -146 49 l-89 0 0 28 c0 48 -12 52 -165 52 l-141 0
-10 38 -9 37 -72 3 c-66 3 -73 5 -73 23 0 37 -19 59 -50 59 -24 0 -30 4 -30
21 0 37 -19 59 -50 59 -26 0 -30 4 -30 28 0 15 -5 33 -12 40 -7 7 -25 12 -40
12 -24 0 -28 4 -28 30 0 31 -22 50 -59 50 -17 0 -21 6 -21 30 0 31 -22 50 -59
50 -17 0 -21 6 -21 30 0 31 -22 50 -59 50 -15 0 -20 8 -23 33 -3 28 -8 33 -40
41 -31 8 -37 14 -40 40 -3 26 -8 32 -40 39 -32 8 -37 13 -40 40 -3 28 -7 33
-38 37 -31 4 -36 9 -40 40 -4 31 -9 36 -40 40 -31 4 -36 9 -40 40 -4 31 -9 36
-40 40 -31 4 -36 9 -40 40 -4 31 -9 35 -37 38 -27 3 -32 8 -40 40 -7 32 -13
37 -39 40 -26 3 -32 9 -40 40 -8 32 -13 37 -41 40 -25 3 -33 8 -33 23 0 37
-19 59 -50 59 -24 0 -30 4 -30 21 0 37 -19 59 -50 59 -24 0 -30 4 -30 21 0 37
-19 59 -50 59 -26 0 -30 4 -30 28 0 15 -5 33 -12 40 -7 7 -25 12 -40 12 -24 0
-28 4 -28 28 0 15 -5 33 -12 40 -7 7 -25 12 -40 12 -24 0 -28 4 -28 28 0 36
-16 52 -52 52 -24 0 -28 4 -28 30 0 31 -22 50 -59 50 -17 0 -21 6 -21 30 0 31
-22 50 -59 50 -15 0 -20 8 -23 33 -3 28 -8 33 -40 41 -31 8 -37 14 -40 40 -3
26 -8 32 -40 39 -32 8 -37 13 -40 40 -3 28 -7 33 -38 37 -31 4 -36 9 -40 40
-4 31 -9 36 -40 40 -31 4 -36 9 -40 40 -4 31 -9 35 -37 38 -27 3 -32 8 -40 40
-7 32 -13 37 -39 40 -26 3 -32 9 -40 40 -8 34 -12 37 -46 40 -31 3 -38 7 -38
25 0 49 -9 52 -177 55 -132 2 -162 0 -180 -13z m253 -775 c31 0 33 -3 36 -37
3 -36 5 -38 40 -41 35 -3 37 -5 40 -40 3 -35 5 -37 40 -40 35 -3 37 -5 40 -40
3 -35 5 -37 40 -40 35 -3 37 -5 40 -40 3 -35 5 -37 41 -40 35 -3 37 -5 37 -37
0 -35 13 -45 56 -45 21 0 24 -5 24 -35 0 -33 2 -35 40 -41 37 -6 40 -9 40 -40
0 -29 3 -34 24 -34 44 0 56 -10 56 -46 0 -32 2 -34 34 -34 36 0 46 -12 46 -56
0 -21 5 -24 34 -24 31 0 34 -3 40 -40 6 -38 8 -40 41 -40 30 0 35 -3 35 -24 0
-43 10 -56 45 -56 32 0 34 -2 37 -37 3 -36 5 -38 40 -41 35 -3 37 -5 40 -40 3
-35 5 -37 40 -40 35 -3 37 -5 40 -40 3 -35 5 -37 40 -40 35 -3 37 -5 40 -40 3
-35 5 -37 40 -40 35 -3 37 -5 40 -40 3 -35 5 -37 40 -40 35 -3 37 -5 40 -40 3
-35 5 -37 40 -40 35 -3 37 -5 40 -40 3 -35 5 -37 40 -40 35 -3 37 -5 40 -40 3
-35 5 -37 40 -40 35 -3 37 -5 40 -40 3 -35 5 -37 41 -40 35 -3 37 -5 37 -37 0
-35 13 -45 56 -45 21 0 24 -5 24 -35 0 -33 2 -35 40 -41 37 -6 40 -9 40 -40 0
-31 3 -34 28 -34 15 0 33 -5 40 -12 7 -7 12 -25 12 -40 0 -25 3 -28 34 -28 31
0 34 -3 40 -40 6 -38 8 -40 41 -40 32 0 34 -2 37 -37 3 -36 5 -38 40 -41 35
-3 37 -5 40 -40 3 -35 5 -37 40 -40 35 -3 37 -5 40 -40 3 -35 5 -37 40 -40 35
-3 37 -5 40 -40 3 -35 5 -37 40 -40 35 -3 37 -5 40 -40 3 -35 5 -37 40 -40 35
-3 37 -5 40 -40 3 -35 5 -37 40 -40 35 -3 37 -5 40 -40 3 -35 5 -37 40 -40 35
-3 37 -5 40 -40 3 -35 5 -37 40 -40 35 -3 37 -5 40 -40 3 -35 5 -37 40 -40 35
-3 37 -5 40 -40 3 -35 5 -37 40 -40 35 -3 37 -5 40 -40 3 -35 5 -37 41 -40 35
-3 37 -5 37 -37 0 -30 4 -36 28 -41 49 -10 52 -13 52 -43 0 -26 4 -31 34 -36
29 -6 35 -12 41 -41 5 -30 10 -34 36 -34 30 0 33 -3 43 -52 5 -24 11 -28 41
-28 32 0 34 -2 37 -37 3 -36 5 -38 40 -41 35 -3 37 -5 40 -40 3 -35 5 -37 40
-40 35 -3 37 -5 40 -40 3 -35 5 -37 40 -40 35 -3 37 -5 40 -40 3 -35 5 -37 40
-40 35 -3 37 -5 40 -40 3 -35 5 -37 41 -40 37 -3 37 -4 37 -48 0 -40 -2 -44
-24 -44 -28 0 -43 -16 -48 -50 -2 -18 -10 -26 -28 -28 -34 -5 -48 -19 -52 -50
-2 -20 -9 -28 -28 -30 -34 -5 -48 -19 -52 -50 -2 -20 -9 -28 -28 -30 -34 -5
-50 -20 -50 -48 0 -18 -7 -25 -27 -30 -39 -9 -53 -23 -53 -49 0 -17 -8 -25
-27 -30 -38 -9 -53 -23 -53 -50 0 -17 -8 -25 -27 -30 -38 -9 -53 -23 -53 -50
0 -16 -8 -24 -32 -31 -24 -7 -35 -17 -42 -40 -7 -22 -18 -33 -40 -40 -22 -6
-34 -18 -40 -40 -7 -22 -18 -33 -40 -40 -22 -6 -34 -18 -40 -40 -7 -22 -18
-33 -40 -40 -22 -6 -33 -18 -39 -40 -7 -22 -17 -33 -40 -40 -23 -6 -34 -17
-40 -40 -6 -22 -17 -33 -40 -40 -23 -7 -33 -17 -39 -41 -7 -26 -14 -33 -32
-33 -27 0 -41 -14 -50 -52 -5 -21 -12 -28 -30 -28 -28 0 -43 -16 -48 -50 -2
-18 -10 -26 -28 -28 -34 -5 -48 -19 -52 -50 -2 -20 -9 -28 -28 -30 -34 -5 -48
-19 -52 -50 -2 -20 -9 -28 -28 -30 -34 -5 -48 -19 -52 -50 -2 -20 -9 -28 -28
-30 -34 -5 -48 -19 -52 -50 -2 -20 -9 -28 -28 -30 -34 -5 -50 -20 -50 -48 0
-18 -7 -25 -27 -30 -39 -9 -53 -23 -53 -50 0 -18 -7 -25 -32 -32 -25 -6 -35
-16 -42 -39 -7 -23 -18 -34 -40 -40 -23 -6 -34 -17 -40 -40 -7 -23 -18 -33
-40 -40 -22 -6 -34 -17 -40 -39 -7 -22 -18 -33 -40 -40 -22 -6 -34 -18 -40
-40 -7 -22 -18 -33 -40 -40 -22 -6 -33 -18 -39 -40 -7 -22 -17 -33 -40 -40
-23 -6 -34 -17 -40 -40 -6 -22 -17 -33 -40 -40 -23 -7 -33 -17 -39 -39 -5 -23
-16 -33 -40 -40 -24 -8 -34 -18 -40 -40 -6 -23 -16 -33 -40 -40 -26 -8 -34
-17 -38 -40 -4 -23 -11 -31 -32 -33 -31 -4 -45 -18 -50 -52 -2 -19 -10 -26
-30 -28 -31 -4 -45 -18 -50 -52 -2 -19 -10 -26 -30 -28 -31 -4 -45 -18 -50
-52 -2 -19 -10 -26 -30 -28 -31 -4 -45 -18 -50 -52 -2 -19 -10 -26 -33 -30
-24 -4 -32 -13 -41 -40 -9 -27 -18 -36 -40 -40 -22 -4 -31 -13 -39 -38 -7 -24
-17 -34 -40 -40 -22 -6 -32 -16 -40 -40 -7 -24 -17 -35 -40 -40 -22 -6 -32
-16 -39 -39 -7 -23 -18 -34 -40 -40 -23 -6 -34 -17 -40 -40 -7 -22 -18 -34
-40 -40 -22 -6 -33 -17 -39 -40 -7 -22 -18 -33 -40 -40 -23 -6 -34 -17 -40
-39 -6 -22 -18 -33 -40 -40 -23 -6 -34 -17 -40 -40 -6 -22 -17 -33 -40 -40
-23 -7 -33 -17 -39 -41 -8 -29 -13 -33 -42 -33 -34 0 -46 -13 -46 -50 0 -13
-11 -21 -37 -27 -33 -7 -38 -13 -41 -40 -3 -30 -3 -30 -74 -35 -73 -6 -88 -15
-88 -55 0 -23 -2 -23 -117 -23 -65 0 -135 -3 -155 -6 -35 -6 -38 -9 -38 -40 0
-34 -1 -34 -44 -34 -43 0 -45 1 -48 33 -3 30 -6 32 -48 39 -25 3 -95 7 -157 7
l-112 1 -3 33 c-3 32 -3 32 -75 41 -65 8 -73 11 -73 30 0 33 -12 44 -50 48
-29 2 -36 8 -38 28 -4 33 -28 50 -71 50 -66 0 -81 9 -81 46 0 33 -1 34 -40 34
l-40 0 0 40 0 40 -40 0 -40 0 0 40 0 40 -40 0 -40 0 0 40 0 40 -40 0 -40 0 0
40 0 40 -40 0 -40 0 0 40 0 40 -40 0 -40 0 0 40 c0 39 -1 40 -34 40 -36 0 -46
12 -46 56 0 21 -5 24 -34 24 -31 0 -34 3 -40 40 -6 38 -8 40 -41 40 -30 0 -35
3 -35 24 0 44 -10 56 -46 56 -29 0 -34 3 -34 24 0 43 -10 56 -45 56 -32 0 -34
2 -37 38 -3 35 -5 37 -40 40 -36 3 -38 5 -38 37 0 35 -13 45 -56 45 -21 0 -24
5 -24 34 0 36 -12 46 -56 46 -21 0 -24 5 -24 35 0 33 -2 35 -40 41 -37 6 -40
9 -40 40 0 29 -3 34 -24 34 -44 0 -56 10 -56 46 0 33 -1 34 -40 34 l-40 0 0
40 0 40 -40 0 -40 0 0 40 0 40 -40 0 -40 0 0 40 0 40 -40 0 -40 0 0 40 0 40
-40 0 -40 0 0 40 c0 39 -1 40 -34 40 -36 0 -46 12 -46 56 0 21 -5 24 -34 24
-31 0 -34 3 -40 40 -6 38 -8 40 -41 40 -30 0 -35 3 -35 24 0 44 -10 56 -46 56
-29 0 -34 3 -34 24 0 43 -10 56 -45 56 -32 0 -34 2 -37 38 -3 35 -5 37 -40 40
-35 3 -37 5 -40 40 -3 35 -5 37 -41 40 -35 3 -37 5 -37 37 0 34 -13 45 -54 45
-21 0 -24 6 -30 63 -6 64 -22 87 -57 87 -13 0 -19 10 -21 38 -3 35 -5 37 -40
40 l-38 3 -1 87 c-1 116 -7 134 -47 146 l-32 9 0 278 0 278 38 3 37 3 3 77 3
77 37 3 c35 3 37 5 40 40 3 33 7 39 35 46 31 8 32 10 41 80 l9 71 36 3 c34 3
36 5 39 40 3 35 5 37 40 40 35 3 37 5 40 40 3 35 5 37 40 40 34 3 37 6 42 38
4 31 9 36 40 40 31 4 35 9 38 36 3 27 8 33 37 38 33 7 45 21 45 57 0 12 7 19
19 19 36 0 50 12 57 45 5 29 11 34 38 37 27 3 32 7 36 38 4 31 9 36 40 40 32
5 35 8 38 42 3 35 5 37 40 40 35 3 37 5 40 40 3 35 5 37 40 40 35 3 37 5 40
41 3 36 4 37 43 37 39 0 39 0 39 40 l0 40 80 0 c78 0 80 -1 80 -24 0 -51 7
-56 86 -56 l74 0 0 -29 c0 -40 16 -50 95 -53 63 -3 70 -5 73 -25 6 -41 27 -47
173 -51 l139 -4 0 -33 c0 -21 6 -35 16 -39 9 -3 62 -6 119 -6 l103 0 5 -29 c3
-16 14 -32 24 -36 10 -5 98 -10 196 -13 l177 -4 0 -24 c0 -43 28 -48 295 -52
l250 -4 15 -32 15 -31 120 -6 c66 -4 256 -7 423 -8 l302 -1 0 -34 c0 -33 2
-35 38 -38 35 -3 37 -5 40 -40 3 -37 4 -38 42 -38 35 0 39 -3 45 -30 4 -17 15
-35 25 -40 11 -6 101 -10 205 -10 104 0 194 4 205 10 10 5 21 23 25 40 6 27
10 30 46 30 38 0 39 1 39 34 0 36 12 46 56 46 21 0 24 4 24 39 0 39 1 40 38
43 l37 3 3 245 c1 135 0 255 -3 266 -3 15 -15 24 -40 28 -32 6 -35 10 -35 40
0 36 -13 46 -56 46 -20 0 -24 5 -24 30 0 48 -23 52 -333 48 -298 -3 -296 -3
-297 -55 0 -17 -6 -23 -21 -23 -37 0 -59 -19 -59 -50 l0 -30 -280 0 -280 0 0
30 c0 19 -7 33 -19 40 -12 6 -120 10 -280 10 l-261 0 0 24 c0 44 -20 49 -213
55 -177 6 -182 7 -185 28 -6 39 -26 46 -172 51 -134 5 -140 6 -140 26 0 41
-13 46 -128 53 l-111 6 -3 31 -3 31 -112 9 -111 9 -7 34 c-5 30 -9 33 -43 34
l-37 2 40 6 c38 6 40 8 43 43 3 35 5 37 40 40 34 3 37 6 42 38 4 30 9 35 35
38 33 4 45 16 45 48 0 17 8 23 35 28 29 6 35 12 41 41 5 27 11 35 28 35 32 0
44 12 48 45 3 26 8 31 38 35 32 5 35 8 38 42 3 35 5 37 40 40 35 3 37 5 40 40
3 35 5 37 40 40 35 3 37 5 40 40 3 35 5 37 40 40 35 3 37 5 40 40 3 35 5 37
40 40 35 3 37 5 40 40 3 35 5 37 40 40 35 3 37 5 40 40 3 35 5 37 40 40 35 3
37 5 40 40 3 35 5 37 40 40 35 3 37 5 40 40 3 35 5 37 40 40 35 3 37 5 40 40
3 35 5 37 40 40 35 3 37 5 40 40 3 35 5 37 40 40 35 3 37 5 40 40 3 35 5 37
40 40 35 3 37 5 40 41 3 35 5 37 37 37 30 0 34 3 42 38 7 32 13 37 40 40 28 3
32 7 35 35 3 27 8 33 41 40 34 8 37 12 37 43 0 29 3 34 24 34 43 0 56 10 56
45 0 32 2 34 38 37 35 3 37 5 40 40 3 35 5 37 40 40 35 3 37 5 40 40 3 35 5
37 40 40 35 3 37 5 40 40 3 35 5 37 40 40 35 3 37 5 40 41 l3 37 62 0 c34 0
69 5 77 10 9 6 18 6 24 0 6 -6 25 -10 42 -10z m-1146 -99 c-5 -11 -10 -29 -10
-40 0 -17 -6 -21 -30 -21 -31 0 -50 -22 -50 -59 0 -17 -6 -21 -30 -21 -31 0
-50 -22 -50 -59 0 -15 -8 -20 -32 -23 -29 -3 -34 -8 -42 -40 -8 -31 -14 -37
-40 -40 -26 -3 -32 -8 -39 -40 -8 -32 -13 -37 -40 -40 -28 -3 -33 -7 -37 -38
-4 -31 -9 -36 -40 -40 -32 -5 -35 -8 -38 -42 -3 -35 -5 -37 -40 -40 -35 -3
-37 -5 -40 -40 -3 -35 -5 -37 -40 -40 -35 -3 -37 -5 -40 -40 -3 -35 -5 -37
-40 -40 -34 -3 -37 -6 -42 -38 -4 -31 -9 -36 -40 -40 -31 -4 -35 -9 -38 -37
-3 -27 -8 -32 -40 -40 -32 -7 -37 -13 -40 -39 -3 -26 -9 -32 -40 -40 -32 -8
-37 -13 -40 -41 -3 -25 -8 -33 -23 -33 -37 0 -59 -19 -59 -50 0 -24 -4 -30
-21 -30 -37 0 -59 -19 -59 -50 0 -25 -4 -30 -24 -30 -31 0 -56 -25 -56 -56 0
-20 -5 -24 -30 -24 -31 0 -50 -22 -50 -59 0 -15 -8 -20 -32 -23 -29 -3 -34 -8
-42 -40 -8 -32 -14 -37 -40 -40 -27 -3 -32 -8 -40 -40 -8 -31 -14 -37 -40 -40
-26 -3 -32 -8 -39 -40 -8 -36 -11 -38 -48 -38 l-39 0 0 49 c0 70 -13 97 -49
104 -26 5 -30 11 -33 44 -3 36 -5 38 -40 41 l-37 3 -3 77 -3 77 -32 3 -33 3 0
159 0 160 25 6 c34 8 45 32 45 98 l0 55 38 3 c35 3 37 5 40 39 3 30 8 37 35
45 23 6 34 17 41 40 7 22 18 33 40 40 22 7 33 18 40 41 7 27 14 32 45 35 32 3
36 6 39 35 3 31 5 32 60 39 72 8 92 19 92 48 0 21 6 24 62 30 77 9 98 20 98
51 0 22 4 25 38 26 20 0 55 3 77 7 34 6 41 11 45 37 l5 30 106 6 c58 3 111 9
118 13 6 4 11 20 11 37 l0 29 141 0 c77 0 149 5 160 10 12 7 19 21 19 40 l0
30 210 0 c205 0 210 -1 200 -19z m4843 -2678 l67 -6 0 -32 c0 -35 13 -45 55
-45 19 0 24 -6 27 -32 3 -29 7 -34 36 -38 25 -4 36 -13 50 -40 12 -25 25 -36
45 -38 19 -2 27 -9 27 -23 0 -33 36 -59 81 -59 56 0 79 -14 79 -50 0 -27 3
-30 34 -30 l34 0 7 -65 c8 -68 27 -95 67 -95 11 0 18 -9 20 -27 2 -20 12 -32
34 -42 23 -10 33 -23 40 -50 8 -31 13 -36 41 -39 29 -3 32 -7 35 -40 3 -35 5
-37 41 -40 l37 -3 0 -60 c0 -76 12 -99 50 -99 29 0 30 -2 30 -44 0 -83 9 -103
46 -111 l34 -6 0 -59 c0 -77 5 -88 46 -96 l34 -6 0 -95 c0 -110 9 -133 50
-133 l29 0 3 -117 3 -118 38 -3 37 -3 0 -799 0 -799 -27 -3 c-46 -5 -53 -35
-53 -220 l0 -168 -28 0 c-42 0 -52 -17 -53 -95 -1 -47 -3 -60 -8 -40 -4 21
-16 34 -38 44 l-33 15 -2 350 -3 351 -37 3 -38 3 0 429 c0 414 -1 430 -19 440
-11 5 -29 10 -40 10 -20 0 -21 7 -23 152 l-3 152 -37 9 -37 9 -3 111 -3 112
-37 3 -37 3 -3 77 -3 77 -37 3 -38 3 0 74 c0 78 -5 85 -56 85 -21 0 -24 4 -24
40 0 40 0 40 -39 40 -39 0 -39 0 -42 43 -2 23 -3 59 -1 79 3 35 5 37 40 40 35
3 37 5 40 40 3 35 5 37 40 40 l37 3 3 170 c3 209 2 215 -43 215 -32 0 -34 2
-37 38 -3 35 -5 37 -40 40 -35 3 -37 5 -40 40 -3 35 -5 37 -40 40 -35 3 -37 5
-40 40 -3 35 -5 37 -40 40 -35 3 -37 5 -40 40 -3 35 -5 37 -40 40 -35 3 -37 5
-40 40 -3 33 -6 37 -35 40 -27 3 -32 8 -40 40 -7 32 -13 37 -39 40 -26 3 -32
9 -40 40 -8 32 -13 37 -41 40 -25 3 -33 8 -33 23 0 37 -19 59 -50 59 -24 0
-30 4 -30 22 0 20 1 21 13 4 10 -13 32 -19 80 -23z"/>
<path d="M7410 8840 l0 -400 1650 0 1650 0 0 400 0 400 -1650 0 -1650 0 0
-400z"/>
</g>
</svg>
