<?xml version="1.0" standalone="no"?>
<!DOCTYPE svg PUBLIC "-//W3C//DTD SVG 20010904//EN"
 "http://www.w3.org/TR/2001/REC-SVG-20010904/DTD/svg10.dtd">
<svg version="1.0" xmlns="http://www.w3.org/2000/svg"
 width="980.000000pt" height="874.000000pt" viewBox="0 0 980.000000 874.000000"
 preserveAspectRatio="xMidYMid meet">
<metadata>
Created by potrace 1.16, written by Peter Selinger 2001-2019
</metadata>
<g transform="translate(0.000000,874.000000) scale(0.100000,-0.100000)"
fill="#ffffff" stroke="none">
<path d="M6435 8716 c-258 -50 -380 -122 -675 -401 -473 -448 -5284 -5237
-5484 -5459 -77 -85 -118 -140 -147 -197 -195 -390 -165 -825 81 -1179 55 -78
430 -458 1112 -1122 l355 -348 2751 0 2751 0 39 37 c68 65 74 156 15 215 -21
21 -44 31 -88 38 -36 6 -479 10 -1123 10 -585 0 -1062 3 -1060 8 2 4 680 679
1508 1501 1956 1942 2944 2931 3058 3060 126 144 197 288 248 506 29 124 25
349 -9 476 -30 115 -75 226 -125 308 -64 105 -233 282 -1087 1136 -1101 1101
-1244 1234 -1421 1321 -145 71 -256 95 -459 100 -116 2 -192 -1 -240 -10z
m-1583 -4903 l1588 -1588 -958 -957 -957 -958 -1366 0 -1366 0 -529 532 c-645
649 -820 836 -868 927 -63 120 -81 204 -81 381 0 245 28 308 246 550 256 284
2667 2700 2694 2700 5 0 724 -714 1597 -1587z"/>
</g>
</svg>
